#!OML:ASF F:\VICON\USERDATA\INSTALL\rory3\rory3.ASF
:FULLY-SPECIFIED
:DEGREES
348
root 7.01938 17.9439 14.4195 213.573 84.8617 217.408
lowerback 12.5794 2.32318 3.75184
upperback 0.675044 3.7159 0.714438
thorax -6.15123 1.74689 -2.01237
lowerneck -19.1939 -6.9369 -11.8045
upperneck 29.3702 -8.15472 8.0814
head 14.1186 -3.58624 3.83818
rclavicle 2.50869e-014 6.57853e-015
rhumerus -28.1168 -13.8836 -79.1364
rradius 30.5652
rwrist 4.47201
rhand -16.2773 9.46859
rfingers 7.12502
rthumb 9.93259 -20.2771
lclavicle 2.50869e-014 6.57853e-015
lhumerus -39.3411 10.3466 79.4023
lradius 28.687
lwrist -6.94572
lhand -17.4809 26.2011
lfingers 7.12502
lthumb 8.77127 55.9988
rfemur 2.38132 1.34024 28.428
rtibia 21.8216
rfoot -16.0538 1.10706
rtoes 3.00883
lfemur -20.8961 -1.82962 -16.2162
ltibia 41.3839
lfoot -7.61262 2.32546
ltoes -3.99663
349
root 7.14277 17.9492 14.4014 214.443 85.0655 218.099
lowerback 12.4626 2.14582 3.56573
upperback 0.623969 3.46601 0.949622
thorax -6.18047 1.63181 -1.61479
lowerneck -19.3671 -6.71888 -12.4597
upperneck 29.4814 -7.61568 8.16129
head 14.1749 -3.41716 4.08767
rclavicle 1.94001e-014 -1.43125e-014
rhumerus -27.445 -12.4055 -79.3094
rradius 30.9273
rwrist 4.16307
rhand -16.4501 9.42907
rfingers 7.12502
rthumb 9.76593 -20.3245
lclavicle 1.94001e-014 -1.43125e-014
lhumerus -39.8742 11.5306 79.2979
lradius 28.7116
lwrist -7.21683
lhand -17.8147 26.4234
lfingers 7.12502
lthumb 8.44912 56.2344
rfemur 2.878 1.41983 28.3238
rtibia 21.3371
rfoot -15.8943 0.978684
rtoes 3.9764
lfemur -21.1565 -2.18389 -16.1978
ltibia 39.1934
lfoot -7.5318 2.40314
ltoes -1.76331
350
root 7.27047 17.9492 14.3803 216.103 85.221 219.541
lowerback 12.2566 2.41759 3.77969
upperback 0.59156 3.83021 0.732748
thorax -6.05212 1.80273 -2.01267
lowerneck -19.4231 -6.90257 -12.0111
upperneck 29.4402 -8.01022 8.07697
head 14.1919 -3.5451 3.89756
rclavicle -6.73554e-014 -3.85145e-015
rhumerus -27.171 -12.8885 -79.4315
rradius 31.5221
rwrist 3.90896
rhand -16.6283 9.02488
rfingers 7.12502
rthumb 9.59398 -20.7367
lclavicle -6.73554e-014 -3.85145e-015
lhumerus -39.7361 10.6117 79.3772
lradius 28.5587
lwrist -7.12604
lhand -17.9442 26.7391
lfingers 7.12502
lthumb 8.32415 56.5551
rfemur 3.33937 1.44673 28.272
rtibia 20.9033
rfoot -15.6809 1.05928
rtoes 5.46631
lfemur -21.4176 -2.43161 -16.1035
ltibia 36.9703
lfoot -7.43855 2.31629
ltoes 1.11494
351
root 7.398 17.9445 14.3607 219.064 85.2268 222.294
lowerback 12.0738 2.41729 4.02956
upperback 0.533093 3.85936 0.782694
thorax -5.99757 1.81116 -2.09624
lowerneck -19.5652 -6.84843 -12.0678
upperneck 29.5108 -7.88009 8.02542
head 14.2372 -3.50026 3.9111
rclavicle -2.56525e-014 -7.40473e-015
rhumerus -26.8027 -12.3556 -79.5387
rradius 32.0011
rwrist 3.59119
rhand -16.596 9.02851
rfingers 7.12502
rthumb 9.62513 -20.7316
lclavicle -2.56525e-014 -7.40473e-015
lhumerus -39.9758 10.5338 79.4411
lradius 28.5721
lwrist -7.02818
lhand -17.8562 27.1777
lfingers 7.12502
lthumb 8.40912 56.9903
rfemur 3.75139 1.13313 28.3602
rtibia 20.5246
rfoot -15.7867 1.31788
rtoes 4.88275
lfemur -21.6684 -2.80424 -15.8131
ltibia 34.7405
lfoot -7.25566 2.26562
ltoes 2.41726
352
root 7.526 17.9275 14.3477 221.241 85.2324 224.333
lowerback 12.0021 2.46742 4.14055
upperback 0.480246 3.9394 0.801477
thorax -6.00264 1.84635 -2.149
lowerneck -19.6383 -6.81926 -11.9671
upperneck 29.4878 -7.84752 7.9713
head 14.2299 -3.48129 3.87575
rclavicle -3.84835e-015 -1.78906e-015
rhumerus -26.4458 -12.0132 -79.65
rradius 32.4271
rwrist 3.27807
rhand -16.7425 9.16771
rfingers 7.12502
rthumb 9.48376 -20.5989
lclavicle -3.84835e-015 -1.78906e-015
lhumerus -40.1767 10.6102 79.4105
lradius 28.4914
lwrist -7.28701
lhand -17.7657 27.1712
lfingers 7.12502
lthumb 8.49649 56.9803
rfemur 4.23814 0.814682 28.4487
rtibia 20.1425
rfoot -15.8794 1.36986
rtoes 3.2226
lfemur -21.8832 -2.87252 -15.7006
ltibia 32.5617
lfoot -6.98176 2.25472
ltoes -2.5655
353
root 7.65768 17.9171 14.3312 222.228 85.2435 225.225
lowerback 11.8823 2.52866 4.19026
upperback 0.490667 4.01876 0.776172
thorax -5.91424 1.88611 -2.20859
lowerneck -19.6291 -6.84741 -11.8273
upperneck 29.2989 -7.92362 7.92465
head 14.1443 -3.50717 3.8109
rclavicle 3.40574e-015 -3.47873e-015
rhumerus -26.0012 -11.8474 -79.7891
rradius 32.7844
rwrist 2.91563
rhand -17.1068 9.40712
rfingers 7.12502
rthumb 9.13229 -20.3752
lclavicle 3.40574e-015 -3.47873e-015
lhumerus -40.1894 10.6209 79.3769
lradius 28.2333
lwrist -7.4868
lhand -17.5985 26.9284
lfingers 7.12502
lthumb 8.65785 56.7308
rfemur 4.80087 0.66948 28.4795
rtibia 19.7777
rfoot -15.9779 1.33683
rtoes 2.15253
lfemur -21.9682 -3.15963 -15.6211
ltibia 30.4615
lfoot -6.88085 2.30424
ltoes -5.68803
354
root 7.78858 17.911 14.3135 224.572 85.2278 227.449
lowerback 11.7315 2.49484 4.26793
upperback 0.487641 3.98594 0.912446
thorax -5.84004 1.87229 -2.09549
lowerneck -19.7559 -6.8037 -12.1608
upperneck 29.3058 -7.76939 8.04441
head 14.1798 -3.46185 3.9451
rclavicle -6.82701e-015 9.49197e-015
rhumerus -25.4908 -11.4136 -79.8271
rradius 33.0329
rwrist 2.8869
rhand -17.0353 9.8012
rfingers 7.12502
rthumb 9.20125 -19.9781
lclavicle -6.82701e-015 9.49197e-015
lhumerus -40.425 11.1327 79.3348
lradius 28.1058
lwrist -7.72442
lhand -17.4274 26.4898
lfingers 7.12502
lthumb 8.82296 56.2853
rfemur 5.29077 0.810093 28.6405
rtibia 19.507
rfoot -16.0941 1.21918
rtoes 2.36729
lfemur -22.0415 -3.53842 -15.3601
ltibia 28.3995
lfoot -6.94286 2.33488
ltoes -4.77307
